999
dxfrw 0.6.3
  0
SECTION
  2
HEADER
  9
$ACADVER
  1
AC1021
  9
$DWGCODEPAGE
  3
ANSI_1252
  9
$INSBASE
 10
0
 20
0
 30
0
  9
$EXTMIN
 10
4.496010922035339
 20
25.43101146221617
 30
0
  9
$EXTMAX
 10
269.5703215056159
 20
160.5
 30
0
  9
$LIMMIN
 10
0
 20
0
  9
$LIMMAX
 10
420
 20
297
  9
$ORTHOMODE
 70
    0
  9
$REGENMODE
 70
    1
  9
$FILLMODE
 70
    1
  9
$QTEXTMODE
 70
    0
  9
$MIRRTEXT
 70
    0
  9
$LTSCALE
 40
1
  9
$ATTMODE
 70
    0
  9
$TEXTSIZE
 40
1
  9
$TRACEWID
 40
15.68
  9
$TEXTSTYLE
  7
STANDARD
  9
$CLAYER
  8
HV
  9
$CELTYPE
  6
ByLayer
  9
$CECOLOR
 62
  256
  9
$CELTSCALE
 40
1
  9
$DISPSILH
 70
    0
  9
$DIMSCALE
 40
2.5
  9
$DIMASZ
 40
2.5
  9
$DIMEXO
 40
0.625
  9
$DIMDLI
 40
3.75
  9
$DIMRND
 40
0
  9
$DIMDLE
 40
0
  9
$DIMEXE
 40
1.25
  9
$DIMTP
 40
0
  9
$DIMTM
 40
0
  9
$DIMTXT
 40
2.5
  9
$DIMCEN
 40
2.5
  9
$DIMTSZ
 40
0
  9
$DIMTOL
 70
    0
  9
$DIMLIM
 70
    0
  9
$DIMTIH
 70
    0
  9
$DIMTOH
 70
    0
  9
$DIMSE1
 70
    0
  9
$DIMSE2
 70
    0
  9
$DIMTAD
 70
    1
  9
$DIMZIN
 70
    8
  9
$DIMBLK
  1

  9
$DIMASO
 70
    1
  9
$DIMSHO
 70
    1
  9
$DIMPOST
  1

  9
$DIMAPOST
  1

  9
$DIMALT
 70
    0
  9
$DIMALTD
 70
    3
  9
$DIMALTF
 40
0.03937
  9
$DIMLFAC
 40
1
  9
$DIMTOFL
 70
    1
  9
$DIMTVP
 40
0
  9
$DIMTIX
 70
    0
  9
$DIMSOXD
 70
    0
  9
$DIMSAH
 70
    0
  9
$DIMBLK1
  1

  9
$DIMBLK2
  1

  9
$DIMSTYLE
  2
Standard
  9
$DIMCLRD
 70
    0
  9
$DIMCLRE
 70
    0
  9
$DIMCLRT
 70
    0
  9
$DIMTFAC
 40
1
  9
$DIMGAP
 40
0.625
  9
$DIMJUST
 70
    0
  9
$DIMSD1
 70
    0
  9
$DIMSD2
 70
    0
  9
$DIMTOLJ
 70
    0
  9
$DIMTZIN
 70
    8
  9
$DIMALTZ
 70
    0
  9
$DIMALTTZ
 70
    0
  9
$DIMUPT
 70
    0
  9
$DIMDEC
 70
    2
  9
$DIMTDEC
 70
    2
  9
$DIMALTU
 70
    2
  9
$DIMALTTD
 70
    3
  9
$DIMTXSTY
  7
standard
  9
$DIMAUNIT
 70
    0
  9
$DIMADEC
 70
    0
  9
$DIMALTRND
 40
0
  9
$DIMAZIN
 70
    0
  9
$DIMDSEP
 70
   44
  9
$DIMATFIT
 70
    3
  9
$DIMFRAC
 70
    0
  9
$DIMLDRBLK
  1

  9
$DIMLUNIT
 70
    2
  9
$DIMLWD
 70
   -2
  9
$DIMLWE
 70
   -2
  9
$DIMTMOVE
 70
    0
  9
$DIMFXL
 40
1
  9
$DIMFXLON
 70
    0
  9
$DIMJOGANG
 40
0.7854
  9
$DIMTFILL
 70
    0
  9
$DIMTFILLCLR
 70
    0
  9
$DIMARCSYM
 70
    0
  9
$DIMLTYPE
  6

  9
$DIMLTEX1
  6

  9
$DIMLTEX2
  6

  9
$LUNITS
 70
    2
  9
$LUPREC
 70
    4
  9
$SKETCHINC
 40
1
  9
$FILLETRAD
 40
0
  9
$AUNITS
 70
    0
  9
$AUPREC
 70
    2
  9
$MENU
  1
.
  9
$ELEVATION
 40
0
  9
$PELEVATION
 40
0
  9
$THICKNESS
 40
0
  9
$LIMCHECK
 70
    0
  9
$CHAMFERA
 40
0
  9
$CHAMFERB
 40
0
  9
$CHAMFERC
 40
0
  9
$CHAMFERD
 40
0
  9
$SKPOLY
 70
    0
  9
$USRTIMER
 70
    1
  9
$ANGBASE
 50
0
  9
$ANGDIR
 70
    0
  9
$PDMODE
 70
   34
  9
$PDSIZE
 40
0
  9
$PLINEWID
 40
0
  9
$SPLFRAME
 70
    0
  9
$SPLINETYPE
 70
    6
  9
$SPLINESEGS
 70
    8
  9
$HANDSEED
  5
20000
  9
$SURFTAB1
 70
    6
  9
$SURFTAB2
 70
    6
  9
$SURFTYPE
 70
    6
  9
$SURFU
 70
    6
  9
$SURFV
 70
    6
  9
$UCSBASE
  2

  9
$UCSNAME
  2

  9
$UCSORG
 10
0
 20
0
 30
0
  9
$UCSXDIR
 10
1
 20
0
 30
0
  9
$UCSYDIR
 10
0
 20
1
 30
0
  9
$UCSORTHOREF
  2

  9
$UCSORTHOVIEW
 70
    0
  9
$UCSORGTOP
 10
0
 20
0
 30
0
  9
$UCSORGBOTTOM
 10
0
 20
0
 30
0
  9
$UCSORGLEFT
 10
0
 20
0
 30
0
  9
$UCSORGRIGHT
 10
0
 20
0
 30
0
  9
$UCSORGFRONT
 10
0
 20
0
 30
0
  9
$UCSORGBACK
 10
0
 20
0
 30
0
  9
$PUCSBASE
  2

  9
$PUCSNAME
  2

  9
$PUCSORG
 10
0
 20
0
 30
0
  9
$PUCSXDIR
 10
1
 20
0
 30
0
  9
$PUCSYDIR
 10
0
 20
1
 30
0
  9
$PUCSORTHOREF
  2

  9
$PUCSORTHOVIEW
 70
    0
  9
$PUCSORGTOP
 10
0
 20
0
 30
0
  9
$PUCSORGBOTTOM
 10
0
 20
0
 30
0
  9
$PUCSORGLEFT
 10
0
 20
0
 30
0
  9
$PUCSORGRIGHT
 10
0
 20
0
 30
0
  9
$PUCSORGFRONT
 10
0
 20
0
 30
0
  9
$PUCSORGBACK
 10
0
 20
0
 30
0
  9
$USERI1
 70
    0
  9
$USERI2
 70
    0
  9
$USERI3
 70
    0
  9
$USERI4
 70
    0
  9
$USERI5
 70
    0
  9
$USERR1
 40
0
  9
$USERR2
 40
0
  9
$USERR3
 40
0
  9
$USERR4
 40
0
  9
$USERR5
 40
0
  9
$WORLDVIEW
 70
    1
  9
$SHADEDGE
 70
    3
  9
$SHADEDIF
 70
   70
  9
$TILEMODE
 70
    1
  9
$MAXACTVP
 70
   64
  9
$PINSBASE
 10
0
 20
0
 30
0
  9
$PLIMCHECK
 70
    0
  9
$PEXTMIN
 10
0
 20
0
 30
0
  9
$PEXTMAX
 10
0
 20
0
 30
0
  9
$GRIDMODE
 70
    1
  9
$SNAPSTYLE
 70
    0
  9
$GRIDUNIT
 10
1.5
 20
1.5
  9
$PLIMMIN
 10
0
 20
0
  9
$PLIMMAX
 10
210
 20
297
  9
$UNITMODE
 70
    0
  9
$VISRETAIN
 70
    1
  9
$PLINEGEN
 70
    0
  9
$PSLTSCALE
 70
    1
  9
$TREEDEPTH
 70
 3020
  9
$CMLSTYLE
  2
Standard
  9
$CMLJUST
 70
    0
  9
$CMLSCALE
 40
20
  9
$PROXYGRAPHICS
 70
    1
  9
$MEASUREMENT
 70
    1
  9
$CELWEIGHT
370
   -1
  9
$ENDCAPS
280
    0
  9
$JOINSTYLE
280
    0
  9
$LWDISPLAY
290
    0
  9
$INSUNITS
 70
    4
  9
$HYPERLINKBASE
  1

  9
$STYLESHEET
  1

  9
$XEDIT
290
    1
  9
$CEPSNTYPE
380
    0
  9
$PSTYLEMODE
290
    1
  9
$EXTNAMES
290
    1
  9
$PSVPSCALE
 40
1
  9
$OLESTARTUP
290
    0
  9
$SORTENTS
280
  127
  9
$INDEXCTL
280
    0
  9
$HIDETEXT
280
    1
  9
$XCLIPFRAME
290
    0
  9
$HALOGAP
280
    0
  9
$OBSCOLOR
 70
  257
  9
$OBSLTYPE
280
    0
  9
$INTERSECTIONDISPLAY
280
    0
  9
$INTERSECTIONCOLOR
 70
  257
  9
$DIMASSOC
280
    1
  9
$PROJECTNAME
  1

  9
$CAMERADISPLAY
290
    0
  9
$LENSLENGTH
 40
50
  9
$CAMERAHEIGHT
 40
0
  9
$STEPSPERSEC
 40
2
  9
$STEPSIZE
 40
50
  9
$3DDWFPREC
 40
2
  9
$PSOLWIDTH
 40
5
  9
$PSOLHEIGHT
 40
80
  9
$LOFTANG1
 40
1.570796326794897
  9
$LOFTANG2
 40
1.570796326794897
  9
$LOFTMAG1
 40
0
  9
$LOFTMAG2
 40
0
  9
$LOFTPARAM
 70
    7
  9
$LOFTNORMALS
280
    1
  9
$LATITUDE
 40
1
  9
$LONGITUDE
 40
1
  9
$NORTHDIRECTION
 40
0
  9
$TIMEZONE
 70
-8000
  9
$LIGHTGLYPHDISPLAY
280
    1
  9
$TILEMODELIGHTSYNCH
280
    1
  9
$SOLIDHIST
280
    1
  9
$SHOWHIST
280
    1
  9
$DWFFRAME
280
    2
  9
$DGNFRAME
280
    0
  9
$REALWORLDSCALE
290
    1
  9
$INTERFERECOLOR
 62
    1
  9
$CSHADOW
280
    0
  9
$SHADOWPLANELOCATION
 40
0
  0
ENDSEC
  0
SECTION
  2
CLASSES
  0
ENDSEC
  0
SECTION
  2
TABLES
  0
TABLE
  2
VPORT
  5
8
330
0
100
AcDbSymbolTable
 70
    1
  0
VPORT
  5
31
330
2
100
AcDbSymbolTableRecord
100
AcDbViewportTableRecord
  2
*ACTIVE
 70
    0
 10
0
 20
0
 11
1
 21
1
 12
18.72539704616674
 22
30.37162537582278
 13
0
 23
0
 14
10
 24
10
 15
1.5
 25
1.5
 16
0
 26
0
 36
1
 17
0
 27
0
 37
0
 40
10.32001577598747
 41
2.692105263157895
 42
50
 43
0
 44
0
 50
0
 51
0
 71
    0
 72
  100
 73
    1
 74
    3
 75
    0
 76
    1
 77
    0
 78
    0
281
    0
 65
    1
110
0
120
0
130
0
111
1
121
0
131
0
112
0
122
1
132
0
 79
    0
146
0
348
10020
 60
    3
 61
    5
292
1
282
    1
141
0
142
0
 63
  250
421
3358443
  0
ENDTAB
  0
TABLE
  2
LTYPE
  5
5
330
0
100
AcDbSymbolTable
 70
    4
  0
LTYPE
  5
14
330
5
100
AcDbSymbolTableRecord
100
AcDbLinetypeTableRecord
  2
ByBlock
 70
    0
  3

 72
   65
 73
    0
 40
0
  0
LTYPE
  5
15
330
5
100
AcDbSymbolTableRecord
100
AcDbLinetypeTableRecord
  2
ByLayer
 70
    0
  3

 72
   65
 73
    0
 40
0
  0
LTYPE
  5
16
330
5
100
AcDbSymbolTableRecord
100
AcDbLinetypeTableRecord
  2
Continuous
 70
    0
  3
Solid line
 72
   65
 73
    0
 40
0
  0
LTYPE
  5
32
330
5
100
AcDbSymbolTableRecord
100
AcDbLinetypeTableRecord
  2
DOT
 70
    0
  3
Dot . . . . . . . . . . . . . . . . . . . . . .
 72
   65
 73
    2
 40
6.35
 49
0
 74
    0
 49
-6.35
 74
    0
  0
LTYPE
  5
33
330
5
100
AcDbSymbolTableRecord
100
AcDbLinetypeTableRecord
  2
DOTTINY
 70
    0
  3
Dot (.15x) .....................................
 72
   65
 73
    2
 40
0.9525
 49
0
 74
    0
 49
-0.9525
 74
    0
  0
LTYPE
  5
34
330
5
100
AcDbSymbolTableRecord
100
AcDbLinetypeTableRecord
  2
DOT2
 70
    0
  3
Dot (.5x) .....................................
 72
   65
 73
    2
 40
3.175
 49
0
 74
    0
 49
-3.175
 74
    0
  0
LTYPE
  5
35
330
5
100
AcDbSymbolTableRecord
100
AcDbLinetypeTableRecord
  2
DOTX2
 70
    0
  3
Dot (2x) .  .  .  .  .  .  .  .  .  .  .  .  .
 72
   65
 73
    2
 40
12.7
 49
0
 74
    0
 49
-12.7
 74
    0
  0
LTYPE
  5
36
330
5
100
AcDbSymbolTableRecord
100
AcDbLinetypeTableRecord
  2
DASHED
 70
    0
  3
Dashed _ _ _ _ _ _ _ _ _ _ _ _ _ _ _ _ _
 72
   65
 73
    2
 40
19.05
 49
12.7
 74
    0
 49
-6.35
 74
    0
  0
LTYPE
  5
37
330
5
100
AcDbSymbolTableRecord
100
AcDbLinetypeTableRecord
  2
DASHEDTINY
 70
    0
  3
Dashed (.15x) _ _ _ _ _ _ _ _ _ _ _ _ _ _ _ _ _
 72
   65
 73
    2
 40
2.8575
 49
1.905
 74
    0
 49
-0.9525
 74
    0
  0
LTYPE
  5
38
330
5
100
AcDbSymbolTableRecord
100
AcDbLinetypeTableRecord
  2
DASHED2
 70
    0
  3
Dashed (.5x) _ _ _ _ _ _ _ _ _ _ _ _ _ _ _ _ _
 72
   65
 73
    2
 40
9.524999999999999
 49
6.35
 74
    0
 49
-3.175
 74
    0
  0
LTYPE
  5
39
330
5
100
AcDbSymbolTableRecord
100
AcDbLinetypeTableRecord
  2
DASHEDX2
 70
    0
  3
Dashed (2x) ____  ____  ____  ____  ____  ___
 72
   65
 73
    2
 40
38.09999999999999
 49
25.4
 74
    0
 49
-12.7
 74
    0
  0
LTYPE
  5
3A
330
5
100
AcDbSymbolTableRecord
100
AcDbLinetypeTableRecord
  2
DASHDOT
 70
    0
  3
Dash dot __ . __ . __ . __ . __ . __ . __ . __
 72
   65
 73
    4
 40
25.4
 49
12.7
 74
    0
 49
-6.35
 74
    0
 49
0
 74
    0
 49
-6.35
 74
    0
  0
LTYPE
  5
3B
330
5
100
AcDbSymbolTableRecord
100
AcDbLinetypeTableRecord
  2
DASHDOTTINY
 70
    0
  3
Dash dot (.15x) _._._._._._._._._._._._._._._.
 72
   65
 73
    4
 40
3.81
 49
1.905
 74
    0
 49
-0.9525
 74
    0
 49
0
 74
    0
 49
-0.9525
 74
    0
  0
LTYPE
  5
3C
330
5
100
AcDbSymbolTableRecord
100
AcDbLinetypeTableRecord
  2
DASHDOT2
 70
    0
  3
Dash dot (.5x) _._._._._._._._._._._._._._._.
 72
   65
 73
    4
 40
12.7
 49
6.35
 74
    0
 49
-3.175
 74
    0
 49
0
 74
    0
 49
-3.175
 74
    0
  0
LTYPE
  5
3D
330
5
100
AcDbSymbolTableRecord
100
AcDbLinetypeTableRecord
  2
DASHDOTX2
 70
    0
  3
Dash dot (2x) ____  .  ____  .  ____  .  ___
 72
   65
 73
    4
 40
50.8
 49
25.4
 74
    0
 49
-12.7
 74
    0
 49
0
 74
    0
 49
-12.7
 74
    0
  0
LTYPE
  5
3E
330
5
100
AcDbSymbolTableRecord
100
AcDbLinetypeTableRecord
  2
DIVIDE
 70
    0
  3
Divide ____ . . ____ . . ____ . . ____ . . ____
 72
   65
 73
    6
 40
31.75
 49
12.7
 74
    0
 49
-6.35
 74
    0
 49
0
 74
    0
 49
-6.35
 74
    0
 49
0
 74
    0
 49
-6.35
 74
    0
  0
LTYPE
  5
3F
330
5
100
AcDbSymbolTableRecord
100
AcDbLinetypeTableRecord
  2
DIVIDETINY
 70
    0
  3
Divide (.15x) __..__..__..__..__..__..__..__.._
 72
   65
 73
    6
 40
4.7625
 49
1.905
 74
    0
 49
-0.9525
 74
    0
 49
0
 74
    0
 49
-0.9525
 74
    0
 49
0
 74
    0
 49
-0.9525
 74
    0
  0
LTYPE
  5
40
330
5
100
AcDbSymbolTableRecord
100
AcDbLinetypeTableRecord
  2
DIVIDE2
 70
    0
  3
Divide (.5x) __..__..__..__..__..__..__..__.._
 72
   65
 73
    6
 40
15.875
 49
6.35
 74
    0
 49
-3.175
 74
    0
 49
0
 74
    0
 49
-3.175
 74
    0
 49
0
 74
    0
 49
-3.175
 74
    0
  0
LTYPE
  5
41
330
5
100
AcDbSymbolTableRecord
100
AcDbLinetypeTableRecord
  2
DIVIDEX2
 70
    0
  3
Divide (2x) ________  .  .  ________  .  .  _
 72
   65
 73
    6
 40
63.5
 49
25.4
 74
    0
 49
-12.7
 74
    0
 49
0
 74
    0
 49
-12.7
 74
    0
 49
0
 74
    0
 49
-12.7
 74
    0
  0
LTYPE
  5
42
330
5
100
AcDbSymbolTableRecord
100
AcDbLinetypeTableRecord
  2
BORDER
 70
    0
  3
Border __ __ . __ __ . __ __ . __ __ . __ __ .
 72
   65
 73
    6
 40
44.45
 49
12.7
 74
    0
 49
-6.35
 74
    0
 49
12.7
 74
    0
 49
-6.35
 74
    0
 49
0
 74
    0
 49
-6.35
 74
    0
  0
LTYPE
  5
43
330
5
100
AcDbSymbolTableRecord
100
AcDbLinetypeTableRecord
  2
BORDERTINY
 70
    0
  3
Border (.15x) __.__.__.__.__.__.__.__.__.__.__.
 72
   65
 73
    6
 40
6.6675
 49
1.905
 74
    0
 49
-0.9525
 74
    0
 49
1.905
 74
    0
 49
-0.9525
 74
    0
 49
0
 74
    0
 49
-0.9525
 74
    0
  0
LTYPE
  5
44
330
5
100
AcDbSymbolTableRecord
100
AcDbLinetypeTableRecord
  2
BORDER2
 70
    0
  3
Border (.5x) __.__.__.__.__.__.__.__.__.__.__.
 72
   65
 73
    6
 40
22.225
 49
6.35
 74
    0
 49
-3.175
 74
    0
 49
6.35
 74
    0
 49
-3.175
 74
    0
 49
0
 74
    0
 49
-3.175
 74
    0
  0
LTYPE
  5
45
330
5
100
AcDbSymbolTableRecord
100
AcDbLinetypeTableRecord
  2
BORDERX2
 70
    0
  3
Border (2x) ____  ____  .  ____  ____  .  ___
 72
   65
 73
    6
 40
88.89999999999999
 49
25.4
 74
    0
 49
-12.7
 74
    0
 49
25.4
 74
    0
 49
-12.7
 74
    0
 49
0
 74
    0
 49
-12.7
 74
    0
  0
LTYPE
  5
46
330
5
100
AcDbSymbolTableRecord
100
AcDbLinetypeTableRecord
  2
CENTER
 70
    0
  3
Center ____ _ ____ _ ____ _ ____ _ ____ _ ____
 72
   65
 73
    4
 40
50.8
 49
31.75
 74
    0
 49
-6.35
 74
    0
 49
6.35
 74
    0
 49
-6.35
 74
    0
  0
LTYPE
  5
47
330
5
100
AcDbSymbolTableRecord
100
AcDbLinetypeTableRecord
  2
CENTERTINY
 70
    0
  3
Center (.15x) ___ _ ___ _ ___ _ ___ _ ___ _ ___
 72
   65
 73
    4
 40
7.62
 49
4.7625
 74
    0
 49
-0.9525
 74
    0
 49
0.9525
 74
    0
 49
-0.9525
 74
    0
  0
LTYPE
  5
48
330
5
100
AcDbSymbolTableRecord
100
AcDbLinetypeTableRecord
  2
CENTER2
 70
    0
  3
Center (.5x) ___ _ ___ _ ___ _ ___ _ ___ _ ___
 72
   65
 73
    4
 40
28.575
 49
19.05
 74
    0
 49
-3.175
 74
    0
 49
3.175
 74
    0
 49
-3.175
 74
    0
  0
LTYPE
  5
49
330
5
100
AcDbSymbolTableRecord
100
AcDbLinetypeTableRecord
  2
CENTERX2
 70
    0
  3
Center (2x) ________  __  ________  __  _____
 72
   65
 73
    4
 40
101.6
 49
63.5
 74
    0
 49
-12.7
 74
    0
 49
12.7
 74
    0
 49
-12.7
 74
    0
  0
ENDTAB
  0
TABLE
  2
LAYER
  5
2
330
0
100
AcDbSymbolTable
 70
    1
  0
LAYER
  5
10
330
2
100
AcDbSymbolTableRecord
100
AcDbLayerTableRecord
  2
0
 70
    0
 62
    7
  6
CONTINUOUS
370
    0
390
F
  0
LAYER
  5
4A
330
2
100
AcDbSymbolTableRecord
100
AcDbLayerTableRecord
  2
HV
 70
    0
 62
    7
  6
CONTINUOUS
370
   -3
390
F
  0
LAYER
  5
4B
330
2
100
AcDbSymbolTableRecord
100
AcDbLayerTableRecord
  2
LV
 70
    0
 62
    7
  6
CONTINUOUS
370
   -3
390
F
  0
LAYER
  5
4C
330
2
100
AcDbSymbolTableRecord
100
AcDbLayerTableRecord
  2
MV
 70
    0
 62
    7
  6
CONTINUOUS
370
   -3
390
F
  0
ENDTAB
  0
TABLE
  2
STYLE
  5
3
330
0
100
AcDbSymbolTable
 70
    3
  0
STYLE
  5
4D
330
2
100
AcDbSymbolTableRecord
100
AcDbTextStyleTableRecord
  2
STANDARD
 70
    0
 40
0
 41
1
 50
0
 71
    0
 42
1
  3
STANDARD
  4

  0
ENDTAB
  0
TABLE
  2
VIEW
  5
6
330
0
100
AcDbSymbolTable
 70
    0
  0
ENDTAB
  0
TABLE
  2
UCS
  5
7
330
0
100
AcDbSymbolTable
 70
    0
  0
ENDTAB
  0
TABLE
  2
APPID
  5
9
330
0
100
AcDbSymbolTable
 70
    1
  0
APPID
  5
12
330
9
100
AcDbSymbolTableRecord
100
AcDbRegAppTableRecord
  2
ACAD
 70
    0
  0
APPID
  5
4E
330
9
100
AcDbSymbolTableRecord
100
AcDbRegAppTableRecord
  2
LibreCad
 70
    0
  0
ENDTAB
  0
TABLE
  2
DIMSTYLE
  5
A
330
0
100
AcDbSymbolTable
 70
    1
100
AcDbDimStyleTable
 71
    1
  0
DIMSTYLE
105
4F
330
A
100
AcDbSymbolTableRecord
100
AcDbDimStyleTableRecord
  2
Standard
 70
    0
 40
2.5
 41
2.5
 42
0.625
 43
0.38
 44
1.25
 45
0
 46
0
 47
0
 48
0
 49
1
140
2.5
141
0.09
142
0
143
25.4
144
1
145
0
146
1
147
0.625
148
0
 71
    0
 72
    0
 73
    0
 74
    1
 75
    0
 76
    0
 77
    0
 78
    8
 79
    0
170
    0
171
    2
172
    0
173
    0
174
    0
175
    0
176
    0
177
    0
178
    0
179
    0
271
    2
272
    4
273
    2
274
    2
275
    0
276
    0
277
    2
278
   44
279
    0
280
    0
281
    0
282
    0
283
    1
284
    0
285
    0
286
    0
288
    0
289
    3
340
standard
341

371
   -2
372
   -2
  0
ENDTAB
  0
TABLE
  2
BLOCK_RECORD
  5
1
330
0
100
AcDbSymbolTable
 70
    2
  0
BLOCK_RECORD
  5
1F
330
1
100
AcDbSymbolTableRecord
100
AcDbBlockTableRecord
  2
*Model_Space
 70
    0
280
    1
281
    0
  0
BLOCK_RECORD
  5
1E
330
1
100
AcDbSymbolTableRecord
100
AcDbBlockTableRecord
  2
*Paper_Space
 70
    0
280
    1
281
    0
  0
ENDTAB
  0
ENDSEC
  0
SECTION
  2
BLOCKS
  0
BLOCK
  5
20
330
1F
100
AcDbEntity
  8
0
100
AcDbBlockBegin
  2
*Model_Space
 70
    0
 10
0
 20
0
 30
0
  3
*Model_Space
  1

  0
ENDBLK
  5
21
330
1F
100
AcDbEntity
  8
0
100
AcDbBlockEnd
  0
BLOCK
  5
1C
330
1B
100
AcDbEntity
  8
0
100
AcDbBlockBegin
  2
*Paper_Space
 70
    0
 10
0
 20
0
 30
0
  3
*Paper_Space
  1

  0
ENDBLK
  5
1D
330
1F
100
AcDbEntity
  8
0
100
AcDbBlockEnd
  0
ENDSEC
  0
SECTION
  2
ENTITIES
  0
LINE
  5
50
100
AcDbEntity
  8
HV
  6
ByLayer
 62
  256
370
   -1
100
AcDbLine
 10
16.13428088456142
 20
115.017
 11
7.65174
 21
115.017
  0
LINE
  5
51
100
AcDbEntity
  8
HV
  6
ByLayer
 62
  256
370
   -1
100
AcDbLine
 10
16.13428088456142
 20
110.4275033416357
 11
16.13428088456142
 21
115.017
  0
LINE
  5
52
100
AcDbEntity
  8
HV
  6
ByLayer
 62
  256
370
   -1
100
AcDbLine
 10
93
 20
123
 11
93
 21
109.5
  0
LINE
  5
53
100
AcDbEntity
  8
HV
  6
ByLayer
 62
  256
370
   -1
100
AcDbLine
 10
90
 20
126
 11
93
 21
123
  0
LINE
  5
54
100
AcDbEntity
  8
HV
  6
ByLayer
 62
  256
370
   -1
100
AcDbLine
 10
50.93253333333333
 20
152.9723333333333
 11
43.5
 21
160.5
  0
LINE
  5
55
100
AcDbEntity
  8
HV
  6
ByLayer
 62
  256
370
   -1
100
AcDbLine
 10
30
 20
160.5
 11
43.5
 21
160.5
  0
LINE
  5
56
100
AcDbEntity
  8
HV
  6
ByLayer
 62
  256
370
   -1
100
AcDbLine
 10
51
 20
153
 11
58.5
 21
160.5
  0
LINE
  5
57
100
AcDbEntity
  8
HV
  6
ByLayer
 62
  256
370
   -1
100
AcDbLine
 10
58.5
 20
160.5
 11
70.5
 21
160.5
  0
LINE
  5
58
100
AcDbEntity
  8
HV
  6
ByLayer
 62
  256
370
   -1
100
AcDbLine
 10
51
 20
153
 11
57
 21
147
  0
LINE
  5
59
100
AcDbEntity
  8
HV
  6
ByLayer
 62
  256
370
   -1
100
AcDbLine
 10
54
 20
153
 11
57
 21
150
  0
LINE
  5
5A
100
AcDbEntity
  8
HV
  6
ByLayer
 62
  256
370
   -1
100
AcDbLine
 10
51
 20
153
 11
54
 21
153
  0
LINE
  5
5B
100
AcDbEntity
  8
HV
  6
ByLayer
 62
  256
370
   -1
100
AcDbLine
 10
87
 20
123
 11
87
 21
115.5
  0
LINE
  5
5C
100
AcDbEntity
  8
HV
  6
ByLayer
 62
  256
370
   -1
100
AcDbLine
 10
90
 20
126
 11
87
 21
123
  0
LINE
  5
5D
100
AcDbEntity
  8
HV
  6
ByLayer
 62
  256
370
   -1
100
AcDbLine
 10
90
 20
126
 11
90
 21
112.5
  0
LINE
  5
5E
100
AcDbEntity
  8
HV
  6
ByLayer
 62
  256
370
   -1
100
AcDbLine
 10
87
 20
115.5
 11
69
 21
115.5
  0
LINE
  5
5F
100
AcDbEntity
  8
HV
  6
ByLayer
 62
  256
370
   -1
100
AcDbLine
 10
69
 20
115.5
 11
72
 21
112.5
  0
LINE
  5
60
100
AcDbEntity
  8
HV
  6
ByLayer
 62
  256
370
   -1
100
AcDbLine
 10
90
 20
112.5
 11
72
 21
112.5
  0
LINE
  5
61
100
AcDbEntity
  8
HV
  6
ByLayer
 62
  256
370
   -1
100
AcDbLine
 10
90
 20
126
 11
96
 21
126
  0
LINE
  5
62
100
AcDbEntity
  8
HV
  6
ByLayer
 62
  256
370
   -1
100
AcDbLine
 10
96
 20
126
 11
96
 21
112.5
  0
LINE
  5
63
100
AcDbEntity
  8
HV
  6
ByLayer
 62
  256
370
   -1
100
AcDbLine
 10
69
 20
115.5
 11
63
 21
115.5
  0
LINE
  5
64
100
AcDbEntity
  8
HV
  6
ByLayer
 62
  256
370
   -1
100
AcDbLine
 10
63
 20
115.5
 11
63
 21
123
  0
LINE
  5
65
100
AcDbEntity
  8
HV
  6
ByLayer
 62
  256
370
   -1
100
AcDbLine
 10
69
 20
115.5
 11
66
 21
118.5
  0
LINE
  5
66
100
AcDbEntity
  8
HV
  6
ByLayer
 62
  256
370
   -1
100
AcDbLine
 10
66
 20
118.5
 11
66
 21
126
  0
LINE
  5
67
100
AcDbEntity
  8
HV
  6
ByLayer
 62
  256
370
   -1
100
AcDbLine
 10
69
 20
115.5
 11
69
 21
130.5
  0
LINE
  5
68
100
AcDbEntity
  8
HV
  6
ByLayer
 62
  256
370
   -1
100
AcDbLine
 10
63
 20
130.5
 11
69
 21
130.5
  0
LINE
  5
69
100
AcDbEntity
  8
HV
  6
ByLayer
 62
  256
370
   -1
100
AcDbLine
 10
63
 20
130.5
 11
66
 21
127.5
  0
LINE
  5
6A
100
AcDbEntity
  8
HV
  6
ByLayer
 62
  256
370
   -1
100
AcDbLine
 10
66
 20
127.5
 11
66
 21
126
  0
LINE
  5
6B
100
AcDbEntity
  8
HV
  6
ByLayer
 62
  256
370
   -1
100
AcDbLine
 10
63
 20
130.5
 11
63
 21
123
  0
LINE
  5
6C
100
AcDbEntity
  8
HV
  6
ByLayer
 62
  256
370
   -1
100
AcDbLine
 10
63
 20
130.5
 11
60
 21
133.5
  0
LINE
  5
6D
100
AcDbEntity
  8
HV
  6
ByLayer
 62
  256
370
   -1
100
AcDbLine
 10
63
 20
130.5
 11
63
 21
136.5
  0
LINE
  5
6E
100
AcDbEntity
  8
HV
  6
ByLayer
 62
  256
370
   -1
100
AcDbLine
 10
51
 20
136.5
 11
51
 21
153
  0
LINE
  5
6F
100
AcDbEntity
  8
HV
  6
ByLayer
 62
  256
370
   -1
100
AcDbLine
 10
51
 20
136.5
 11
63
 21
136.5
  0
LINE
  5
70
100
AcDbEntity
  8
HV
  6
ByLayer
 62
  256
370
   -1
100
AcDbLine
 10
60
 20
133.5
 11
42
 21
133.5
  0
LINE
  5
71
100
AcDbEntity
  8
HV
  6
ByLayer
 62
  256
370
   -1
100
AcDbLine
 10
36
 20
127.5
 11
36
 21
144
  0
LINE
  5
72
100
AcDbEntity
  8
HV
  6
ByLayer
 62
  256
370
   -1
100
AcDbLine
 10
42
 20
144
 11
42
 21
133.5
  0
LINE
  5
73
100
AcDbEntity
  8
HV
  6
ByLayer
 62
  256
370
   -1
100
AcDbLine
 10
39
 20
147
 11
39
 21
124.5
  0
LINE
  5
74
100
AcDbEntity
  8
HV
  6
ByLayer
 62
  256
370
   -1
100
AcDbLine
 10
39
 20
147
 11
42
 21
144
  0
LINE
  5
75
100
AcDbEntity
  8
HV
  6
ByLayer
 62
  256
370
   -1
100
AcDbLine
 10
36
 20
144
 11
39
 21
147
  0
LINE
  5
76
100
AcDbEntity
  8
HV
  6
ByLayer
 62
  256
370
   -1
100
AcDbLine
 10
39
 20
153
 11
51
 21
153
  0
LINE
  5
77
100
AcDbEntity
  8
HV
  6
ByLayer
 62
  256
370
   -1
100
AcDbLine
 10
39
 20
147
 11
39
 21
153
  0
LINE
  5
78
100
AcDbEntity
  8
HV
  6
ByLayer
 62
  256
370
   -1
100
AcDbLine
 10
39
 20
147
 11
42
 21
150
  0
LINE
  5
79
100
AcDbEntity
  8
HV
  6
ByLayer
 62
  256
370
   -1
100
AcDbLine
 10
51
 20
153
 11
48
 21
150
  0
LINE
  5
7A
100
AcDbEntity
  8
HV
  6
ByLayer
 62
  256
370
   -1
100
AcDbLine
 10
42
 20
150
 11
48
 21
150
  0
LINE
  5
7B
100
AcDbEntity
  8
HV
  6
ByLayer
 62
  256
370
   -1
100
AcDbLine
 10
24
 20
127.5
 11
24
 21
112.5
  0
LINE
  5
7C
100
AcDbEntity
  8
HV
  6
ByLayer
 62
  256
370
   -1
100
AcDbLine
 10
39
 20
124.5
 11
27
 21
124.5
  0
LINE
  5
7D
100
AcDbEntity
  8
HV
  6
ByLayer
 62
  256
370
   -1
100
AcDbLine
 10
36
 20
127.5
 11
24
 21
127.5
  0
LINE
  5
7E
100
AcDbEntity
  8
HV
  6
ByLayer
 62
  256
370
   -1
100
AcDbLine
 10
19.5
 20
112.5
 11
24
 21
112.5
  0
LINE
  5
7F
100
AcDbEntity
  8
HV
  6
ByLayer
 62
  256
370
   -1
100
AcDbLine
 10
22.5
 20
109.5
 11
27
 21
109.5
  0
LINE
  5
80
100
AcDbEntity
  8
HV
  6
ByLayer
 62
  256
370
   -1
100
AcDbLine
 10
27
 20
124.5
 11
27
 21
109.5
  0
LINE
  5
81
100
AcDbEntity
  8
HV
  6
ByLayer
 62
  256
370
   -1
100
AcDbLine
 10
19.5
 20
106.5
 11
19.5
 21
112.5
  0
LINE
  5
82
100
AcDbEntity
  8
HV
  6
ByLayer
 62
  256
370
   -1
100
AcDbLine
 10
19.5
 20
106.5
 11
16.13428088456142
 21
110.4275033416357
  0
LINE
  5
83
100
AcDbEntity
  8
HV
  6
ByLayer
 62
  256
370
   -1
100
AcDbLine
 10
19.5
 20
106.5
 11
22.5
 21
109.5
  0
LINE
  5
84
100
AcDbEntity
  8
HV
  6
ByLayer
 62
  256
370
   -1
100
AcDbLine
 10
30
 20
103.5
 11
30
 21
37.5
  0
LINE
  5
85
100
AcDbEntity
  8
HV
  6
ByLayer
 62
  256
370
   -1
100
AcDbLine
 10
22.5
 20
103.5
 11
30
 21
103.5
  0
LINE
  5
86
100
AcDbEntity
  8
HV
  6
ByLayer
 62
  256
370
   -1
100
AcDbLine
 10
22.5
 20
103.5
 11
19.5
 21
106.5
  0
LINE
  5
87
100
AcDbEntity
  8
HV
  6
ByLayer
 62
  256
370
   -1
100
AcDbLine
 10
19.5
 20
97.5
 11
19.5
 21
106.5
  0
LINE
  5
88
100
AcDbEntity
  8
HV
  6
ByLayer
 62
  256
370
   -1
100
AcDbLine
 10
60
 20
69
 11
60
 21
66
  0
LINE
  5
89
100
AcDbEntity
  8
HV
  6
ByLayer
 62
  256
370
   -1
100
AcDbLine
 10
63
 20
72
 11
60
 21
69
  0
LINE
  5
8A
100
AcDbEntity
  8
HV
  6
ByLayer
 62
  256
370
   -1
100
AcDbLine
 10
63
 20
72
 11
60
 21
75
  0
LINE
  5
8B
100
AcDbEntity
  8
HV
  6
ByLayer
 62
  256
370
   -1
100
AcDbLine
 10
60
 20
75
 11
60
 21
81
  0
LINE
  5
8C
100
AcDbEntity
  8
HV
  6
ByLayer
 62
  256
370
   -1
100
AcDbLine
 10
69
 20
97.5
 11
69
 21
115.5
  0
LINE
  5
8D
100
AcDbEntity
  8
HV
  6
ByLayer
 62
  256
370
   -1
100
AcDbLine
 10
45
 20
75
 11
45
 21
43.5
  0
LINE
  5
8E
100
AcDbEntity
  8
HV
  6
ByLayer
 62
  256
370
   -1
100
AcDbLine
 10
45
 20
37.5
 11
42
 21
40.5
  0
LINE
  5
8F
100
AcDbEntity
  8
HV
  6
ByLayer
 62
  256
370
   -1
100
AcDbLine
 10
30
 20
37.5
 11
45
 21
37.5
  0
LINE
  5
90
100
AcDbEntity
  8
HV
  6
ByLayer
 62
  256
370
   -1
100
AcDbLine
 10
45
 20
33
 11
45
 21
37.5
  0
LINE
  5
91
100
AcDbEntity
  8
HV
  6
ByLayer
 62
  256
370
   -1
100
AcDbLine
 10
45
 20
37.5
 11
45
 21
43.5
  0
LINE
  5
92
100
AcDbEntity
  8
HV
  6
ByLayer
 62
  256
370
   -1
100
AcDbLine
 10
48
 20
78
 11
48
 21
46.5
  0
LINE
  5
93
100
AcDbEntity
  8
HV
  6
ByLayer
 62
  256
370
   -1
100
AcDbLine
 10
63
 20
58.5
 11
63
 21
72
  0
LINE
  5
94
100
AcDbEntity
  8
HV
  6
ByLayer
 62
  256
370
   -1
100
AcDbLine
 10
63
 20
112.5
 11
63
 21
72
  0
LINE
  5
95
100
AcDbEntity
  8
HV
  6
ByLayer
 62
  256
370
   -1
100
AcDbLine
 10
66
 20
112.5
 11
69
 21
115.5
  0
LINE
  5
96
100
AcDbEntity
  8
HV
  6
ByLayer
 62
  256
370
   -1
100
AcDbLine
 10
63
 20
112.5
 11
66
 21
112.5
  0
LINE
  5
97
100
AcDbEntity
  8
HV
  6
ByLayer
 62
  256
370
   -1
100
AcDbLine
 10
48
 20
46.5
 11
78
 21
46.5
  0
LINE
  5
98
100
AcDbEntity
  8
HV
  6
ByLayer
 62
  256
370
   -1
100
AcDbLine
 10
19.5
 20
106.5
 11
33
 21
106.5
  0
LINE
  5
99
100
AcDbEntity
  8
HV
  6
ByLayer
 62
  256
370
   -1
100
AcDbLine
 10
36
 20
75
 11
45
 21
75
  0
LINE
  5
9A
100
AcDbEntity
  8
HV
  6
ByLayer
 62
  256
370
   -1
100
AcDbLine
 10
39
 20
87
 11
36
 21
84
  0
LINE
  5
9B
100
AcDbEntity
  8
HV
  6
ByLayer
 62
  256
370
   -1
100
AcDbLine
 10
36
 20
84
 11
36
 21
75
  0
LINE
  5
9C
100
AcDbEntity
  8
HV
  6
ByLayer
 62
  256
370
   -1
100
AcDbLine
 10
33
 20
106.5
 11
33
 21
40.5
  0
LINE
  5
9D
100
AcDbEntity
  8
HV
  6
ByLayer
 62
  256
370
   -1
100
AcDbLine
 10
39
 20
78
 11
48
 21
78
  0
LINE
  5
9E
100
AcDbEntity
  8
HV
  6
ByLayer
 62
  256
370
   -1
100
AcDbLine
 10
60
 20
81
 11
42
 21
81
  0
LINE
  5
9F
100
AcDbEntity
  8
HV
  6
ByLayer
 62
  256
370
   -1
100
AcDbLine
 10
42
 20
81
 11
42
 21
84
  0
LINE
  5
A0
100
AcDbEntity
  8
HV
  6
ByLayer
 62
  256
370
   -1
100
AcDbLine
 10
42
 20
84
 11
39
 21
87
  0
LINE
  5
A1
100
AcDbEntity
  8
HV
  6
ByLayer
 62
  256
370
   -1
100
AcDbLine
 10
39
 20
78
 11
39
 21
87
  0
LINE
  5
A2
100
AcDbEntity
  8
HV
  6
ByLayer
 62
  256
370
   -1
100
AcDbLine
 10
39
 20
97.5
 11
19.5
 21
97.5
  0
LINE
  5
A3
100
AcDbEntity
  8
HV
  6
ByLayer
 62
  256
370
   -1
100
AcDbLine
 10
39
 20
87
 11
39
 21
97.5
  0
LINE
  5
A4
100
AcDbEntity
  8
HV
  6
ByLayer
 62
  256
370
   -1
100
AcDbLine
 10
69
 20
97.5
 11
42
 21
97.5
  0
LINE
  5
A5
100
AcDbEntity
  8
HV
  6
ByLayer
 62
  256
370
   -1
100
AcDbLine
 10
42
 20
90
 11
42
 21
97.5
  0
LINE
  5
A6
100
AcDbEntity
  8
HV
  6
ByLayer
 62
  256
370
   -1
100
AcDbLine
 10
39
 20
87
 11
42
 21
90
  0
MTEXT
  5
A7
100
AcDbEntity
  8
HV
  6
ByLayer
 62
  256
370
   -1
100
AcDbMText
 10
7.602484261171835
 20
115.0031720599041
 30
0
 40
1
 41
2.77777777777784
 71
    1
 72
    1
  1
3020
  7
STANDARD
210
0
220
0
230
1
 50
0
 73
    2
 44
1
  0
MTEXT
  5
A8
100
AcDbEntity
  8
HV
  6
ByLayer
 62
  256
370
   -1
100
AcDbMText
 10
63.02571494861233
 20
72.00221545351893
 30
0
 40
1
 41
2.888888888888951
 71
    1
 72
    1
  1
3249
  7
STANDARD
210
0
220
0
230
1
 50
0
 73
    2
 44
1
  0
MTEXT
  5
A9
100
AcDbEntity
  8
HV
  6
ByLayer
 62
  256
370
   -1
100
AcDbMText
 10
39.0309834126789
 20
86.96522082903053
 30
0
 40
1
 41
2.333333333333457
 71
    1
 72
    1
  1
3115
  7
STANDARD
210
0
220
0
230
1
 50
0
 73
    2
 44
1
  0
MTEXT
  5
AA
100
AcDbEntity
  8
HV
  6
ByLayer
 62
  256
370
   -1
100
AcDbMText
 10
68.99714707092161
 20
115.4848729629028
 30
0
 40
1
 41
2.555555555555618
 71
    1
 72
    1
  1
3100
  7
STANDARD
210
0
220
0
230
1
 50
0
 73
    2
 44
1
  0
MTEXT
  5
AB
100
AcDbEntity
  8
HV
  6
ByLayer
 62
  256
370
   -1
100
AcDbMText
 10
19.5146990165413
 20
106.4766851886207
 30
0
 40
1
 41
2.77777777777784
 71
    1
 72
    1
  1
3000
  7
STANDARD
210
0
220
0
230
1
 50
0
 73
    2
 44
1
  0
MTEXT
  5
AC
100
AcDbEntity
  8
HV
  6
ByLayer
 62
  256
370
   -1
100
AcDbMText
 10
63.09974850778165
 20
130.4534401680516
 30
0
 40
1
 41
2.77777777777784
 71
    1
 72
    1
  1
3200
  7
STANDARD
210
0
220
0
230
1
 50
0
 73
    2
 44
1
  0
MTEXT
  5
AD
100
AcDbEntity
  8
HV
  6
ByLayer
 62
  256
370
   -1
100
AcDbMText
 10
38.9639695112805
 20
146.9822612943355
 30
0
 40
1
 41
2.777777777777901
 71
    1
 72
    1
  1
3300
  7
STANDARD
210
0
220
0
230
1
 50
0
 73
    2
 44
1
  0
MTEXT
  5
AE
100
AcDbEntity
  8
HV
  6
ByLayer
 62
  256
370
   -1
100
AcDbMText
 10
45.00018674406427
 20
37.50400461400861
 30
0
 40
1
 41
2.888888888889013
 71
    1
 72
    1
  1
3245
  7
STANDARD
210
0
220
0
230
1
 50
0
 73
    2
 44
1
  0
LINE
  5
AF
100
AcDbEntity
  8
HV
  6
ByLayer
 62
  256
370
   -1
100
AcDbLine
 10
33.1028648925209
 20
40.5
 11
42.1028648925209
 21
40.5
  0
LINE
  5
B0
100
AcDbEntity
  8
MV
  6
ByLayer
 62
  256
370
   -1
100
AcDbLine
 10
61.5
 20
32.93101146221617
 11
61.5
 21
28.43101146221617
  0
MTEXT
  5
B1
100
AcDbEntity
  8
MV
  6
ByLayer
 62
  256
370
   -1
100
AcDbMText
 10
61.51217825915956
 20
28.43972992453665
 30
0
 40
1
 41
3.000000000000062
 71
    1
 72
    1
  1
3244
  7
STANDARD
210
0
220
0
230
1
 50
0
 73
    2
 44
1
  0
MTEXT
  5
B2
100
AcDbEntity
  8
HV
  6
ByLayer
 62
  256
370
   -1
100
AcDbMText
 10
51
 20
153
 30
0
 40
1
 41
2.77777777777784
 71
    1
 72
    1
  1
8500
  7
STANDARD
210
0
220
0
230
1
 50
0
 73
    2
 44
1
  0
MTEXT
  5
B3
100
AcDbEntity
  8
HV
  6
ByLayer
 62
  256
370
   -1
100
AcDbMText
 10
30.00643975271053
 20
160.4961132446018
 30
0
 40
1
 41
2.777777777777778
 71
    1
 72
    1
  1
8700
  7
STANDARD
210
0
220
0
230
1
 50
0
 73
    2
 44
1
  0
MTEXT
  5
B4
100
AcDbEntity
  8
HV
  6
ByLayer
 62
  256
370
   -1
100
AcDbMText
 10
70.57921447048437
 20
160.3097329885248
 30
0
 40
1
 41
2.77777777777784
 71
    1
 72
    1
  1
8600
  7
STANDARD
210
0
220
0
230
1
 50
0
 73
    2
 44
1
  0
MTEXT
  5
B5
100
AcDbEntity
  8
HV
  6
ByLayer
 62
  256
370
   -1
100
AcDbMText
 10
90.18055101902665
 20
125.9938905614977
 30
0
 40
1
 41
2.777777777777964
 71
    1
 72
    1
  1
3359
  7
STANDARD
210
0
220
0
230
1
 50
0
 73
    2
 44
1
  0
MTEXT
  5
B6
100
AcDbEntity
  8
LV
  6
ByLayer
 62
  256
370
   -1
100
AcDbMText
 10
108.0107427433405
 20
138.0115624115085
 30
0
 40
1
 41
2.777777777777963
 71
    1
 72
    1
  1
3360
  7
STANDARD
210
0
220
0
230
1
 50
0
 73
    2
 44
1
  0
LINE
  5
B7
100
AcDbEntity
  8
HV
  6
ByLayer
 62
  256
370
   -1
100
AcDbLine
 10
63
 20
58.5
 11
76.5
 21
58.5
  0
LINE
  5
B8
100
AcDbEntity
  8
HV
  6
ByLayer
 62
  256
370
   -1
100
AcDbLine
 10
52.5
 20
33
 11
45
 21
33
  0
LINE
  5
B9
100
AcDbEntity
  8
MV
  6
ByLayer
 62
  256
370
   -1
100
AcDbLine
 10
61.5
 20
33
 11
52.5
 21
33
  0
LINE
  5
BA
100
AcDbEntity
  8
HV
  6
ByLayer
 62
  256
370
   -1
100
AcDbLine
 10
90
 20
126
 11
93
 21
129
  0
LINE
  5
BB
100
AcDbEntity
  8
LV
  6
ByLayer
 62
  256
370
   -1
100
AcDbLine
 10
100.5
 20
138
 11
108
 21
138
  0
LINE
  5
BC
100
AcDbEntity
  8
HV
  6
ByLayer
 62
  256
370
   -1
100
AcDbLine
 10
93
 20
138
 11
100.5
 21
138
  0
LINE
  5
BD
100
AcDbEntity
  8
HV
  6
ByLayer
 62
  256
370
   -1
100
AcDbLine
 10
93
 20
138
 11
93
 21
129
  0
LINE
  5
BE
100
AcDbEntity
  8
HV
  6
ByLayer
 62
  256
370
   -1
100
AcDbLine
 10
90
 20
126
 11
90
 21
150
  0
LINE
  5
BF
100
AcDbEntity
  8
HV
  6
ByLayer
 62
  256
370
   -1
100
AcDbLine
 10
57
 20
150
 11
90
 21
150
  0
LINE
  5
C0
100
AcDbEntity
  8
HV
  6
ByLayer
 62
  256
370
   -1
100
AcDbLine
 10
57
 20
147
 11
87
 21
147
  0
LINE
  5
C1
100
AcDbEntity
  8
HV
  6
ByLayer
 62
  256
370
   -1
100
AcDbLine
 10
90
 20
126
 11
87
 21
129
  0
LINE
  5
C2
100
AcDbEntity
  8
HV
  6
ByLayer
 62
  256
370
   -1
100
AcDbLine
 10
87
 20
129
 11
87
 21
147
  0
LINE
  5
C3
100
AcDbEntity
  8
HV
  6
ByLayer
 62
  256
370
   -1
100
AcDbLine
 10
66
 20
133.5
 11
63
 21
130.5
  0
LINE
  5
C4
100
AcDbEntity
  8
HV
  6
ByLayer
 62
  256
370
   -1
100
AcDbLine
 10
78
 20
133.5
 11
66
 21
133.5
  0
LINE
  5
C5
100
AcDbEntity
  8
HV
  6
ByLayer
 62
  256
370
   -1
100
AcDbLine
 10
78
 20
126
 11
78
 21
133.5
  0
LINE
  5
C6
100
AcDbEntity
  8
HV
  6
ByLayer
 62
  256
370
   -1
100
AcDbLine
 10
90
 20
126
 11
78
 21
126
  0
LINE
  5
C7
100
AcDbEntity
  8
HV
  6
ByLayer
 62
  256
370
   -1
100
AcDbLine
 10
10.421
 20
70.599
 11
10.421
 21
70.599
  0
LINE
  5
C8
100
AcDbEntity
  8
HV
  6
ByLayer
 62
  256
370
   -1
100
AcDbLine
 10
4.5
 20
79.5
 11
10.5
 21
79.5
  0
LINE
  5
C9
100
AcDbEntity
  8
HV
  6
ByLayer
 62
  256
370
   -1
100
AcDbLine
 10
7.5
 20
63
 11
4.5
 21
63
  0
LINE
  5
CA
100
AcDbEntity
  8
HV
  6
ByLayer
 62
  256
370
   -1
100
AcDbLine
 10
7.5
 20
55.5
 11
7.5
 21
63
  0
LINE
  5
CB
100
AcDbEntity
  8
HV
  6
ByLayer
 62
  256
370
   -1
100
AcDbLine
 10
10.5
 20
70.5
 11
10.5
 21
55.5
  0
LINE
  5
CC
100
AcDbEntity
  8
HV
  6
ByLayer
 62
  256
370
   -1
100
AcDbLine
 10
10.5
 20
55.5
 11
7.5
 21
55.5
  0
LINE
  5
CD
100
AcDbEntity
  8
HV
  6
ByLayer
 62
  256
370
   -1
100
AcDbLine
 10
19.5
 20
52.5
 11
13.5
 21
52.5
  0
LINE
  5
CE
100
AcDbEntity
  8
HV
  6
ByLayer
 62
  256
370
   -1
100
AcDbLine
 10
19.5
 20
58.5
 11
13.5
 21
58.5
  0
LINE
  5
CF
100
AcDbEntity
  8
HV
  6
ByLayer
 62
  256
370
   -1
100
AcDbLine
 10
10.5
 20
55.5
 11
13.5
 21
58.5
  0
LINE
  5
D0
100
AcDbEntity
  8
HV
  6
ByLayer
 62
  256
370
   -1
100
AcDbLine
 10
10.5
 20
55.5
 11
13.5
 21
52.5
  0
LINE
  5
D1
100
AcDbEntity
  8
HV
  6
ByLayer
 62
  256
370
   -1
100
AcDbLine
 10
19.5
 20
52.5
 11
22.5
 21
55.5
  0
LINE
  5
D2
100
AcDbEntity
  8
HV
  6
ByLayer
 62
  256
370
   -1
100
AcDbLine
 10
19.5
 20
58.5
 11
22.5
 21
55.5
  0
MTEXT
  5
D3
100
AcDbEntity
  8
HV
  6
ByLayer
 62
  256
370
   -1
100
AcDbMText
 10
4.496010922035339
 20
62.97701830338818
 30
0
 40
1
 41
2.777777777777778
 71
    1
 72
    1
  1
7020
  7
STANDARD
210
0
220
0
230
1
 50
0
 73
    2
 44
1
  0
MTEXT
  5
D4
100
AcDbEntity
  8
HV
  6
ByLayer
 62
  256
370
   -1
100
AcDbMText
 10
4.498003626515273
 20
79.47456418262897
 30
0
 40
1
 41
2.555555555555555
 71
    1
 72
    1
  1
7010
  7
STANDARD
210
0
220
0
230
1
 50
0
 73
    2
 44
1
  0
MTEXT
  5
D5
100
AcDbEntity
  8
HV
  6
ByLayer
 62
  256
370
   -1
100
AcDbMText
 10
10.4964343758914
 20
55.48100738135284
 30
0
 40
1
 41
2.777777777777778
 71
    1
 72
    1
  1
7000
  7
STANDARD
210
0
220
0
230
1
 50
0
 73
    2
 44
1
  0
MTEXT
  5
D6
100
AcDbEntity
  8
HV
  6
ByLayer
 62
  256
370
   -1
100
AcDbMText
 10
22.50419312566708
 20
55.48100738135284
 30
0
 40
1
 41
2.555555555555555
 71
    1
 72
    1
  1
7100
  7
STANDARD
210
0
220
0
230
1
 50
0
 73
    2
 44
1
  0
LINE
  5
D7
100
AcDbEntity
  8
HV
  6
ByLayer
 62
  256
370
   -1
100
AcDbLine
 10
10.5
 20
70.5
 11
10.5
 21
79.5
  0
LINE
  5
D8
100
AcDbEntity
  8
HV
  6
ByLayer
 62
  256
370
   -1
100
AcDbLine
 10
25.5
 20
66
 11
60
 21
66
  0
LINE
  5
D9
100
AcDbEntity
  8
HV
  6
ByLayer
 62
  256
370
   -1
100
AcDbLine
 10
22.5
 20
55.5
 11
25.5
 21
55.5
  0
LINE
  5
DA
100
AcDbEntity
  8
HV
  6
ByLayer
 62
  256
370
   -1
100
AcDbLine
 10
25.5
 20
55.5
 11
25.5
 21
66
  0
LINE
  5
DB
100
AcDbEntity
  8
HV
  6
ByLayer
 62
  256
370
   -1
100
AcDbLine
 10
39
 20
87
 11
22.5
 21
87
  0
LINE
  5
DC
100
AcDbEntity
  8
HV
  6
ByLayer
 62
  256
370
   -1
100
AcDbLine
 10
22.5
 20
87
 11
22.5
 21
55.5
  0
LINE
  5
DD
100
AcDbEntity
  8
MV
  6
ByLayer
 62
  256
370
   -1
100
AcDbLine
 10
61.5
 20
28.43101146221617
 11
61.5
 21
25.5
  0
LINE
  5
DE
100
AcDbEntity
  8
MV
  6
ByLayer
 62
  256
370
   -1
100
AcDbLine
 10
129
 20
40.5
 11
156
 21
40.5
  0
LINE
  5
DF
100
AcDbEntity
  8
MV
  6
ByLayer
 62
  256
370
   -1
100
AcDbLine
 10
153
 20
43.5
 11
159
 21
43.5
  0
LINE
  5
E0
100
AcDbEntity
  8
HV
  6
ByLayer
 62
  256
370
   -1
100
AcDbLine
 10
153
 20
70.5
 11
159
 21
70.5
  0
LINE
  5
E1
100
AcDbEntity
  8
HV
  6
ByLayer
 62
  256
370
   -1
100
AcDbLine
 10
159
 20
66
 11
181.5
 21
66
  0
LINE
  5
E2
100
AcDbEntity
  8
HV
  6
ByLayer
 62
  256
370
   -1
100
AcDbLine
 10
184.5
 20
66
 11
181.5
 21
66
  0
LINE
  5
E3
100
AcDbEntity
  8
HV
  6
ByLayer
 62
  256
370
   -1
100
AcDbLine
 10
184.5
 20
58.5
 11
184.5
 21
66
  0
LINE
  5
E4
100
AcDbEntity
  8
MV
  6
ByLayer
 62
  256
370
   -1
100
AcDbLine
 10
126
 20
60
 11
126
 21
40.5
  0
LINE
  5
E5
100
AcDbEntity
  8
HV
  6
ByLayer
 62
  256
370
   -1
100
AcDbLine
 10
126
 20
90
 11
129
 21
87
  0
LINE
  5
E6
100
AcDbEntity
  8
HV
  6
ByLayer
 62
  256
370
   -1
100
AcDbLine
 10
129
 20
87
 11
126
 21
84
  0
LINE
  5
E7
100
AcDbEntity
  8
HV
  6
ByLayer
 62
  256
370
   -1
100
AcDbLine
 10
126
 20
84
 11
126
 21
75
  0
LINE
  5
E8
100
AcDbEntity
  8
HV
  6
ByLayer
 62
  256
370
   -1
100
AcDbLine
 10
129
 20
87
 11
129
 21
76.5
  0
LINE
  5
E9
100
AcDbEntity
  8
HV
  6
ByLayer
 62
  256
370
   -1
100
AcDbLine
 10
129
 20
87
 11
132
 21
84
  0
LINE
  5
EA
100
AcDbEntity
  8
HV
  6
ByLayer
 62
  256
370
   -1
100
AcDbLine
 10
132
 20
84
 11
132
 21
81
  0
LINE
  5
EB
100
AcDbEntity
  8
HV
  6
ByLayer
 62
  256
370
   -1
100
AcDbLine
 10
132
 20
81
 11
181.5
 21
81
  0
LINE
  5
EC
100
AcDbEntity
  8
HV
  6
ByLayer
 62
  256
370
   -1
100
AcDbLine
 10
129
 20
97.5
 11
129
 21
112.5
  0
LINE
  5
ED
100
AcDbEntity
  8
HV
  6
ByLayer
 62
  256
370
   -1
100
AcDbLine
 10
129
 20
87
 11
129
 21
97.5
  0
LINE
  5
EE
100
AcDbEntity
  8
HV
  6
ByLayer
 62
  256
370
   -1
100
AcDbLine
 10
126
 20
109.5
 11
126
 21
90
  0
LINE
  5
EF
100
AcDbEntity
  8
HV
  6
ByLayer
 62
  256
370
   -1
100
AcDbLine
 10
129
 20
76.5
 11
159
 21
76.5
  0
LINE
  5
F0
100
AcDbEntity
  8
HV
  6
ByLayer
 62
  256
370
   -1
100
AcDbLine
 10
159
 20
70.5
 11
159
 21
76.5
  0
LINE
  5
F1
100
AcDbEntity
  8
HV
  6
ByLayer
 62
  256
370
   -1
100
AcDbLine
 10
159
 20
70.5
 11
159
 21
66
  0
LINE
  5
F2
100
AcDbEntity
  8
HV
  6
ByLayer
 62
  256
370
   -1
100
AcDbLine
 10
162
 20
111
 11
159
 21
111
  0
LINE
  5
F3
100
AcDbEntity
  8
HV
  6
ByLayer
 62
  256
370
   -1
100
AcDbLine
 10
156
 20
100.5
 11
156
 21
111
  0
LINE
  5
F4
100
AcDbEntity
  8
HV
  6
ByLayer
 62
  256
370
   -1
100
AcDbLine
 10
159
 20
100.5
 11
178.5
 21
100.5
  0
LINE
  5
F5
100
AcDbEntity
  8
HV
  6
ByLayer
 62
  256
370
   -1
100
AcDbLine
 10
177
 20
103.5
 11
181.5
 21
103.5
  0
LINE
  5
F6
100
AcDbEntity
  8
HV
  6
ByLayer
 62
  256
370
   -1
100
AcDbLine
 10
159
 20
111
 11
159
 21
121.5
  0
LINE
  5
F7
100
AcDbEntity
  8
HV
  6
ByLayer
 62
  256
370
   -1
100
AcDbLine
 10
162
 20
118.5
 11
162
 21
111
  0
LINE
  5
F8
100
AcDbEntity
  8
HV
  6
ByLayer
 62
  256
370
   -1
100
AcDbLine
 10
162
 20
118.5
 11
180
 21
118.5
  0
LINE
  5
F9
100
AcDbEntity
  8
HV
  6
ByLayer
 62
  256
370
   -1
100
AcDbLine
 10
177
 20
121.5
 11
159
 21
121.5
  0
LINE
  5
FA
100
AcDbEntity
  8
HV
  6
ByLayer
 62
  256
370
   -1
100
AcDbLine
 10
180
 20
118.5
 11
177
 21
121.5
  0
LINE
  5
FB
100
AcDbEntity
  8
HV
  6
ByLayer
 62
  256
370
   -1
100
AcDbLine
 10
180
 20
118.5
 11
177
 21
115.5
  0
LINE
  5
FC
100
AcDbEntity
  8
HV
  6
ByLayer
 62
  256
370
   -1
100
AcDbLine
 10
180
 20
118.5
 11
183
 21
115.5
  0
LINE
  5
FD
100
AcDbEntity
  8
HV
  6
ByLayer
 62
  256
370
   -1
100
AcDbLine
 10
177
 20
115.5
 11
177
 21
103.5
  0
LINE
  5
FE
100
AcDbEntity
  8
HV
  6
ByLayer
 62
  256
370
   -1
100
AcDbLine
 10
180
 20
118.5
 11
183
 21
121.5
  0
LINE
  5
FF
100
AcDbEntity
  8
HV
  6
ByLayer
 62
  256
370
   -1
100
AcDbLine
 10
183
 20
121.5
 11
201
 21
121.5
  0
LINE
  5
100
100
AcDbEntity
  8
HV
  6
ByLayer
 62
  256
370
   -1
100
AcDbLine
 10
201
 20
121.5
 11
198
 21
118.5
  0
LINE
  5
101
100
AcDbEntity
  8
HV
  6
ByLayer
 62
  256
370
   -1
100
AcDbLine
 10
198
 20
118.5
 11
180
 21
118.5
  0
LINE
  5
102
100
AcDbEntity
  8
HV
  6
ByLayer
 62
  256
370
   -1
100
AcDbLine
 10
183
 20
115.5
 11
219
 21
115.5
  0
LINE
  5
103
100
AcDbEntity
  8
HV
  6
ByLayer
 62
  256
370
   -1
100
AcDbLine
 10
201
 20
121.5
 11
219
 21
121.5
  0
LINE
  5
104
100
AcDbEntity
  8
MV
  6
ByLayer
 62
  256
370
   -1
100
AcDbLine
 10
243
 20
118.5
 11
262.5
 21
118.5
  0
LINE
  5
105
100
AcDbEntity
  8
MV
  6
ByLayer
 62
  256
370
   -1
100
AcDbLine
 10
234
 20
118.5
 11
243
 21
118.5
  0
LINE
  5
106
100
AcDbEntity
  8
MV
  6
ByLayer
 62
  256
370
   -1
100
AcDbLine
 10
262.5
 20
118.5
 11
262.5
 21
108
  0
LINE
  5
107
100
AcDbEntity
  8
MV
  6
ByLayer
 62
  256
370
   -1
100
AcDbLine
 10
262.5
 20
108
 11
262.5
 21
99
  0
LINE
  5
108
100
AcDbEntity
  8
MV
  6
ByLayer
 62
  256
370
   -1
100
AcDbLine
 10
243
 20
99
 11
262.5
 21
99
  0
LINE
  5
109
100
AcDbEntity
  8
MV
  6
ByLayer
 62
  256
370
   -1
100
AcDbLine
 10
243
 20
99
 11
243
 21
81
  0
LINE
  5
10A
100
AcDbEntity
  8
MV
  6
ByLayer
 62
  256
370
   -1
100
AcDbLine
 10
243
 20
81
 11
246
 21
78
  0
LINE
  5
10B
100
AcDbEntity
  8
MV
  6
ByLayer
 62
  256
370
   -1
100
AcDbLine
 10
246
 20
78
 11
246
 21
55.5
  0
LINE
  5
10C
100
AcDbEntity
  8
MV
  6
ByLayer
 62
  256
370
   -1
100
AcDbLine
 10
243
 20
81
 11
240
 21
78
  0
LINE
  5
10D
100
AcDbEntity
  8
HV
  6
ByLayer
 62
  256
370
   -1
100
AcDbLine
 10
213
 20
100.5
 11
222
 21
100.5
  0
LINE
  5
10E
100
AcDbEntity
  8
HV
  6
ByLayer
 62
  256
370
   -1
100
AcDbLine
 10
181.5
 20
73.5
 11
210
 21
73.5
  0
LINE
  5
10F
100
AcDbEntity
  8
HV
  6
ByLayer
 62
  256
370
   -1
100
AcDbLine
 10
181.5
 20
90
 11
178.5
 21
90
  0
LINE
  5
110
100
AcDbEntity
  8
HV
  6
ByLayer
 62
  256
370
   -1
100
AcDbLine
 10
181.5
 20
90
 11
181.5
 21
81
  0
LINE
  5
111
100
AcDbEntity
  8
HV
  6
ByLayer
 62
  256
370
   -1
100
AcDbLine
 10
181.5
 20
90
 11
181.5
 21
103.5
  0
LINE
  5
112
100
AcDbEntity
  8
HV
  6
ByLayer
 62
  256
370
   -1
100
AcDbLine
 10
178.5
 20
90
 11
178.5
 21
100.5
  0
LINE
  5
113
100
AcDbEntity
  8
HV
  6
ByLayer
 62
  256
370
   -1
100
AcDbLine
 10
159
 20
100.5
 11
159
 21
111
  0
LINE
  5
114
100
AcDbEntity
  8
MV
  6
ByLayer
 62
  256
370
   -1
100
AcDbLine
 10
211.5
 20
66
 11
211.5
 21
55.5
  0
LINE
  5
115
100
AcDbEntity
  8
MV
  6
ByLayer
 62
  256
370
   -1
100
AcDbLine
 10
211.5
 20
55.5
 11
208.5
 21
58.5
  0
LINE
  5
116
100
AcDbEntity
  8
MV
  6
ByLayer
 62
  256
370
   -1
100
AcDbLine
 10
211.5
 20
55.5
 11
240
 21
55.5
  0
LINE
  5
117
100
AcDbEntity
  8
MV
  6
ByLayer
 62
  256
370
   -1
100
AcDbLine
 10
211.5
 20
55.5
 11
211.5
 21
46.5
  0
LINE
  5
118
100
AcDbEntity
  8
MV
  6
ByLayer
 62
  256
370
   -1
100
AcDbLine
 10
208.5
 20
58.5
 11
196.5
 21
58.5
  0
LINE
  5
119
100
AcDbEntity
  8
MV
  6
ByLayer
 62
  256
370
   -1
100
AcDbLine
 10
240
 20
78
 11
240
 21
55.5
  0
LINE
  5
11A
100
AcDbEntity
  8
MV
  6
ByLayer
 62
  256
370
   -1
100
AcDbLine
 10
267
 20
52.5
 11
267
 21
78
  0
LINE
  5
11B
100
AcDbEntity
  8
MV
  6
ByLayer
 62
  256
370
   -1
100
AcDbLine
 10
262.5
 20
93
 11
255
 21
93
  0
LINE
  5
11C
100
AcDbEntity
  8
MV
  6
ByLayer
 62
  256
370
   -1
100
AcDbLine
 10
246
 20
55.5
 11
264
 21
55.5
  0
LINE
  5
11D
100
AcDbEntity
  8
MV
  6
ByLayer
 62
  256
370
   -1
100
AcDbLine
 10
267
 20
52.5
 11
264
 21
52.5
  0
LINE
  5
11E
100
AcDbEntity
  8
MV
  6
ByLayer
 62
  256
370
   -1
100
AcDbLine
 10
234
 20
39
 11
261
 21
39
  0
LINE
  5
11F
100
AcDbEntity
  8
HV
  6
ByLayer
 62
  256
370
   -1
100
AcDbLine
 10
208.5
 20
39
 11
216
 21
39
  0
LINE
  5
120
100
AcDbEntity
  8
HV
  6
ByLayer
 62
  256
370
   -1
100
AcDbLine
 10
187.5
 20
39
 11
208.5
 21
39
  0
LINE
  5
121
100
AcDbEntity
  8
HV
  6
ByLayer
 62
  256
370
   -1
100
AcDbLine
 10
187.5
 20
55.5
 11
187.5
 21
39
  0
LINE
  5
122
100
AcDbEntity
  8
HV
  6
ByLayer
 62
  256
370
   -1
100
AcDbLine
 10
181.5
 20
66
 11
181.5
 21
55.5
  0
LINE
  5
123
100
AcDbEntity
  8
HV
  6
ByLayer
 62
  256
370
   -1
100
AcDbLine
 10
181.5
 20
66
 11
181.5
 21
73.5
  0
LINE
  5
124
100
AcDbEntity
  8
HV
  6
ByLayer
 62
  256
370
   -1
100
AcDbLine
 10
181.5
 20
55.5
 11
187.5
 21
55.5
  0
LINE
  5
125
100
AcDbEntity
  8
MV
  6
ByLayer
 62
  256
370
   -1
100
AcDbLine
 10
234
 20
33
 11
244.5
 21
33
  0
LINE
  5
126
100
AcDbEntity
  8
MV
  6
ByLayer
 62
  256
370
   -1
100
AcDbLine
 10
159
 20
33
 11
228
 21
33
  0
LINE
  5
127
100
AcDbEntity
  8
MV
  6
ByLayer
 62
  256
370
   -1
100
AcDbLine
 10
264
 20
52.5
 11
264
 21
28.5
  0
MTEXT
  5
128
100
AcDbEntity
  8
MV
  6
ByLayer
 62
  256
370
   -1
100
AcDbMText
 10
262.5
 20
108
 30
0
 40
1
 41
2.555555555555618
 71
    1
 72
    1
  1
6100
  7
STANDARD
210
0
220
0
230
1
 50
0
 73
    2
 44
1
  0
LINE
  5
129
100
AcDbEntity
  8
MV
  6
ByLayer
 62
  256
370
   -1
100
AcDbLine
 10
259.5
 20
28.5
 11
264
 21
28.5
  0
MTEXT
  5
12A
100
AcDbEntity
  8
HV
  6
ByLayer
 62
  256
370
   -1
100
AcDbMText
 10
158.9994074648717
 20
111.0110404351373
 30
0
 40
1
 41
2.55555555555568
 71
    1
 72
    1
  1
5103
  7
STANDARD
210
0
220
0
230
1
 50
0
 73
    2
 44
1
  0
MTEXT
  5
12B
100
AcDbEntity
  8
HV
  6
ByLayer
 62
  256
370
   -1
100
AcDbMText
 10
129.0040217672725
 20
87.00051955435694
 30
0
 40
1
 41
2.333333333333395
 71
    1
 72
    1
  1
5101
  7
STANDARD
210
0
220
0
230
1
 50
0
 73
    2
 44
1
  0
LINE
  5
12C
100
AcDbEntity
  8
MV
  6
ByLayer
 62
  256
370
   -1
100
AcDbLine
 10
129
 20
40.43101146221617
 11
129
 21
37.43101146221617
  0
LINE
  5
12D
100
AcDbEntity
  8
MV
  6
ByLayer
 62
  256
370
   -1
100
AcDbLine
 10
159
 20
43.43101146221617
 11
156
 21
40.43101146221617
  0
LINE
  5
12E
100
AcDbEntity
  8
MV
  6
ByLayer
 62
  256
370
   -1
100
AcDbLine
 10
126
 20
40.43101146221617
 11
129
 21
40.43101146221617
  0
LINE
  5
12F
100
AcDbEntity
  8
MV
  6
ByLayer
 62
  256
370
   -1
100
AcDbLine
 10
267
 20
77.93101146221616
 11
267
 21
85.43101146221616
  0
LINE
  5
130
100
AcDbEntity
  8
MV
  6
ByLayer
 62
  256
370
   -1
100
AcDbLine
 10
267
 20
85.43101146221616
 11
267
 21
92.93101146221616
  0
LINE
  5
131
100
AcDbEntity
  8
MV
  6
ByLayer
 62
  256
370
   -1
100
AcDbLine
 10
264
 20
55.43101146221617
 11
264
 21
52.43101146221617
  0
LINE
  5
132
100
AcDbEntity
  8
MV
  6
ByLayer
 62
  256
370
   -1
100
AcDbLine
 10
264
 20
52.43101146221617
 11
261
 21
52.43101146221617
  0
LINE
  5
133
100
AcDbEntity
  8
MV
  6
ByLayer
 62
  256
370
   -1
100
AcDbLine
 10
261
 20
52.43101146221617
 11
261
 21
38.93101146221617
  0
LINE
  5
134
100
AcDbEntity
  8
MV
  6
ByLayer
 62
  256
370
   -1
100
AcDbLine
 10
231
 20
35.93101146221617
 11
234
 21
38.93101146221617
  0
LINE
  5
135
100
AcDbEntity
  8
MV
  6
ByLayer
 62
  256
370
   -1
100
AcDbLine
 10
234
 20
32.93101146221617
 11
231
 21
35.93101146221617
  0
LINE
  5
136
100
AcDbEntity
  8
MV
  6
ByLayer
 62
  256
370
   -1
100
AcDbLine
 10
231
 20
35.93101146221617
 11
228
 21
38.93101146221617
  0
LINE
  5
137
100
AcDbEntity
  8
MV
  6
ByLayer
 62
  256
370
   -1
100
AcDbLine
 10
228
 20
32.93101146221617
 11
231
 21
35.93101146221617
  0
LINE
  5
138
100
AcDbEntity
  8
MV
  6
ByLayer
 62
  256
370
   -1
100
AcDbLine
 10
159
 20
43.43101146221617
 11
159
 21
32.93101146221617
  0
MTEXT
  5
139
100
AcDbEntity
  8
MV
  6
ByLayer
 62
  256
370
   -1
100
AcDbMText
 10
107.9965177816274
 20
37.42481657786023
 30
0
 40
1
 41
2.777777777777901
 71
    1
 72
    1
  1
6500
  7
STANDARD
210
0
220
0
230
1
 50
0
 73
    2
 44
1
  0
MTEXT
  5
13A
100
AcDbEntity
  8
MV
  6
ByLayer
 62
  256
370
   -1
100
AcDbMText
 10
129.0162686918702
 20
40.42827730113827
 30
0
 40
1
 41
2.555555555555618
 71
    1
 72
    1
  1
5100
  7
STANDARD
210
0
220
0
230
1
 50
0
 73
    2
 44
1
  0
MTEXT
  5
13B
100
AcDbEntity
  8
MV
  6
ByLayer
 62
  256
370
   -1
100
AcDbMText
 10
267.0147659500602
 20
85.41063477694883
 30
0
 40
1
 41
2.555555555555679
 71
    1
 72
    1
  1
5601
  7
STANDARD
210
0
220
0
230
1
 50
0
 73
    2
 44
1
  0
MTEXT
  5
13C
100
AcDbEntity
  8
MV
  6
ByLayer
 62
  256
370
   -1
100
AcDbMText
 10
231.0050026029747
 20
35.92525282473028
 30
0
 40
1
 41
2.777777777777963
 71
    1
 72
    1
  1
5603
  7
STANDARD
210
0
220
0
230
1
 50
0
 73
    2
 44
1
  0
MTEXT
  5
13D
100
AcDbEntity
  8
MV
  6
ByLayer
 62
  256
370
   -1
100
AcDbMText
 10
211.5062930094294
 20
55.43273190814198
 30
0
 40
1
 41
2.888888888888951
 71
    1
 72
    1
  1
5400
  7
STANDARD
210
0
220
0
230
1
 50
0
 73
    2
 44
1
  0
MTEXT
  5
13E
100
AcDbEntity
  8
MV
  6
ByLayer
 62
  256
370
   -1
100
AcDbMText
 10
243.0096760060536
 20
80.91630993946339
 30
0
 40
1
 41
2.77777777777784
 71
    1
 72
    1
  1
6000
  7
STANDARD
210
0
220
0
230
1
 50
0
 73
    2
 44
1
  0
MTEXT
  5
13F
100
AcDbEntity
  8
MV
  6
ByLayer
 62
  256
370
   -1
100
AcDbMText
 10
244.5239878304097
 20
32.94997095299271
 30
0
 40
1
 41
2.55555555555568
 71
    1
 72
    1
  1
5610
  7
STANDARD
210
0
220
0
230
1
 50
0
 73
    2
 44
1
  0
MTEXT
  5
140
100
AcDbEntity
  8
MV
  6
ByLayer
 62
  256
370
   -1
100
AcDbMText
 10
259.5157339708647
 20
28.42297764066483
 30
0
 40
1
 41
2.777777777777901
 71
    1
 72
    1
  1
5620
  7
STANDARD
210
0
220
0
230
1
 50
0
 73
    2
 44
1
  0
MTEXT
  5
141
100
AcDbEntity
  8
MV
  6
ByLayer
 62
  256
370
   -1
100
AcDbMText
 10
159.0252033242937
 20
43.39547932405501
 30
0
 40
1
 41
2.777777777777901
 71
    1
 72
    1
  1
5500
  7
STANDARD
210
0
220
0
230
1
 50
0
 73
    2
 44
1
  0
LINE
  5
142
100
AcDbEntity
  8
MV
  6
ByLayer
 62
  256
370
   -1
100
AcDbLine
 10
243
 20
81
 11
240
 21
84
  0
LINE
  5
143
100
AcDbEntity
  8
MV
  6
ByLayer
 62
  256
370
   -1
100
AcDbLine
 10
240
 20
84
 11
240
 21
87
  0
LINE
  5
144
100
AcDbEntity
  8
MV
  6
ByLayer
 62
  256
370
   -1
100
AcDbLine
 10
228
 20
87
 11
240
 21
87
  0
LINE
  5
145
100
AcDbEntity
  8
HV
  6
ByLayer
 62
  256
370
   -1
100
AcDbLine
 10
213
 20
87
 11
213
 21
79.5
  0
LINE
  5
146
100
AcDbEntity
  8
HV
  6
ByLayer
 62
  256
370
   -1
100
AcDbLine
 10
225
 20
72
 11
225
 21
66
  0
MTEXT
  5
147
100
AcDbEntity
  8
HV
  6
ByLayer
 62
  256
370
   -1
100
AcDbMText
 10
181.5052312174235
 20
89.99692928729971
 30
0
 40
1
 41
2.555555555555618
 71
    1
 72
    1
  1
5102
  7
STANDARD
210
0
220
0
230
1
 50
0
 73
    2
 44
1
  0
LINE
  5
148
100
AcDbEntity
  8
HV
  6
ByLayer
 62
  256
370
   -1
100
AcDbLine
 10
213
 20
100.5
 11
213
 21
87
  0
LINE
  5
149
100
AcDbEntity
  8
HV
  6
ByLayer
 62
  256
370
   -1
100
AcDbLine
 10
213
 20
87
 11
210
 21
90
  0
LINE
  5
14A
100
AcDbEntity
  8
HV
  6
ByLayer
 62
  256
370
   -1
100
AcDbLine
 10
210
 20
90
 11
181.5
 21
90
  0
LINE
  5
14B
100
AcDbEntity
  8
HV
  6
ByLayer
 62
  256
370
   -1
100
AcDbLine
 10
213
 20
87
 11
210
 21
84
  0
LINE
  5
14C
100
AcDbEntity
  8
HV
  6
ByLayer
 62
  256
370
   -1
100
AcDbLine
 10
210
 20
84
 11
210
 21
73.5
  0
LINE
  5
14D
100
AcDbEntity
  8
HV
  6
ByLayer
 62
  256
370
   -1
100
AcDbLine
 10
213
 20
79.5
 11
225
 21
79.5
  0
LINE
  5
14E
100
AcDbEntity
  8
HV
  6
ByLayer
 62
  256
370
   -1
100
AcDbLine
 10
225
 20
79.5
 11
225
 21
72
  0
MTEXT
  5
14F
100
AcDbEntity
  8
HV
  6
ByLayer
 62
  256
370
   -1
100
AcDbMText
 10
159.0160660456765
 20
70.50295817886044
 30
0
 40
1
 41
2.555555555555679
 71
    1
 72
    1
  1
5501
  7
STANDARD
210
0
220
0
230
1
 50
0
 73
    2
 44
1
  0
MTEXT
  5
150
100
AcDbEntity
  8
HV
  6
ByLayer
 62
  256
370
   -1
100
AcDbMText
 10
181.5152798378829
 20
66.0075227100948
 30
0
 40
1
 41
2.666666666666729
 71
    1
 72
    1
  1
5401
  7
STANDARD
210
0
220
0
230
1
 50
0
 73
    2
 44
1
  0
MTEXT
  5
151
100
AcDbEntity
  8
HV
  6
ByLayer
 62
  256
370
   -1
100
AcDbMText
 10
225.0033830724592
 20
72.00760869778657
 30
0
 40
1
 41
2.888888888888951
 71
    1
 72
    1
  1
5402
  7
STANDARD
210
0
220
0
230
1
 50
0
 73
    2
 44
1
  0
LINE
  5
152
100
AcDbEntity
  8
MV
  6
ByLayer
 62
  256
370
   -1
100
AcDbLine
 10
267
 20
93
 11
262.5
 21
93
  0
LINE
  5
153
100
AcDbEntity
  8
MV
  6
ByLayer
 62
  256
370
   -1
100
AcDbLine
 10
159
 20
46.5
 11
211.5
 21
46.5
  0
LINE
  5
154
100
AcDbEntity
  8
MV
  6
ByLayer
 62
  256
370
   -1
100
AcDbLine
 10
159
 20
46.5
 11
159
 21
43.43101146221617
  0
LINE
  5
155
100
AcDbEntity
  8
HV
  6
ByLayer
 62
  256
370
   -1
100
AcDbLine
 10
222
 20
100.5
 11
222
 21
118.5
  0
LINE
  5
156
100
AcDbEntity
  8
HV
  6
ByLayer
 62
  256
370
   -1
100
AcDbLine
 10
222
 20
118.5
 11
219
 21
121.5
  0
LINE
  5
157
100
AcDbEntity
  8
HV
  6
ByLayer
 62
  256
370
   -1
100
AcDbLine
 10
222
 20
118.5
 11
219
 21
115.5
  0
MTEXT
  5
158
100
AcDbEntity
  8
HV
  6
ByLayer
 62
  256
370
   -1
100
AcDbMText
 10
180.0011800841
 20
118.4889622314442
 30
0
 40
1
 41
2.888888888889013
 71
    1
 72
    1
  1
5304
  7
STANDARD
210
0
220
0
230
1
 50
0
 73
    2
 44
1
  0
MTEXT
  5
159
100
AcDbEntity
  8
HV
  6
ByLayer
 62
  256
370
   -1
100
AcDbMText
 10
200.9548937492976
 20
121.4759098727384
 30
0
 40
1
 41
2.777777777777963
 71
    1
 72
    1
  1
5305
  7
STANDARD
210
0
220
0
230
1
 50
0
 73
    2
 44
1
  0
MTEXT
  5
15A
100
AcDbEntity
  8
HV
  6
ByLayer
 62
  256
370
   -1
100
AcDbMText
 10
213.0105528489478
 20
86.98177113609526
 30
0
 40
1
 41
2.555555555555618
 71
    1
 72
    1
  1
6001
  7
STANDARD
210
0
220
0
230
1
 50
0
 73
    2
 44
1
  0
LINE
  5
15B
100
AcDbEntity
  8
HV
  6
ByLayer
 62
  256
370
   -1
100
AcDbLine
 10
216
 20
93
 11
216
 21
90
  0
LINE
  5
15C
100
AcDbEntity
  8
HV
  6
ByLayer
 62
  256
370
   -1
100
AcDbLine
 10
213
 20
87
 11
216
 21
90
  0
MTEXT
  5
15D
100
AcDbEntity
  8
MV
  6
ByLayer
 62
  256
370
   -1
100
AcDbMText
 10
243.033739859022
 20
118.5100252193186
 30
0
 40
1
 41
2.777777777777901
 71
    1
 72
    1
  1
5300
  7
STANDARD
210
0
220
0
230
1
 50
0
 73
    2
 44
1
  0
MTEXT
  5
15E
100
AcDbEntity
  8
HV
  6
ByLayer
 62
  256
370
   -1
100
AcDbMText
 10
208.4867545834377
 20
38.99155302951925
 30
0
 40
1
 41
2.777777777777901
 71
    1
 72
    1
  1
5602
  7
STANDARD
210
0
220
0
230
1
 50
0
 73
    2
 44
1
  0
MTEXT
  5
15F
100
AcDbEntity
  8
HV
  6
ByLayer
 62
  256
370
   -1
100
AcDbMText
 10
221.9920187722839
 20
118.4745905118062
 30
0
 40
1
 41
2.555555555555679
 71
    1
 72
    1
  1
5301
  7
STANDARD
210
0
220
0
230
1
 50
0
 73
    2
 44
1
  0
MTEXT
  5
160
100
AcDbEntity
  8
MV
  6
ByLayer
 62
  256
370
   -1
100
AcDbMText
 10
264.0038639441703
 20
52.49462257442002
 30
0
 40
1
 41
2.777777777777901
 71
    1
 72
    1
  1
5600
  7
STANDARD
210
0
220
0
230
1
 50
0
 73
    2
 44
1
  0
LINE
  5
161
100
AcDbEntity
  8
HV
  6
ByLayer
 62
  256
370
   -1
100
AcDbLine
 10
153
 20
55.5
 11
153
 21
70.5
  0
LINE
  5
162
100
AcDbEntity
  8
MV
  6
ByLayer
 62
  256
370
   -1
100
AcDbLine
 10
153
 20
55.5
 11
153
 21
43.5
  0
LINE
  5
163
100
AcDbEntity
  8
HV
  6
ByLayer
 62
  256
370
   -1
100
AcDbLine
 10
126
 20
60
 11
126
 21
75
  0
LINE
  5
164
100
AcDbEntity
  8
HV
  6
ByLayer
 62
  256
370
   -1
100
AcDbLine
 10
196.5
 20
58.5
 11
184.5
 21
58.5
  0
LINE
  5
165
100
AcDbEntity
  8
MV
  6
ByLayer
 62
  256
370
   -1
100
AcDbLine
 10
216
 20
39
 11
228
 21
39
  0
LINE
  5
166
100
AcDbEntity
  8
HV
  6
ByLayer
 62
  256
370
   -1
100
AcDbLine
 10
255
 20
93
 11
216
 21
93
  0
LINE
  5
167
100
AcDbEntity
  8
HV
  6
ByLayer
 62
  256
370
   -1
100
AcDbLine
 10
213
 20
87
 11
228
 21
87
  0
LINE
  5
168
100
AcDbEntity
  8
HV
  6
ByLayer
 62
  256
370
   -1
100
AcDbLine
 10
234
 20
118.5
 11
222
 21
118.5
  0
LINE
  5
169
100
AcDbEntity
  8
HV
  6
ByLayer
 62
  256
370
   -1
100
AcDbLine
 10
225
 20
66
 11
219
 21
66
  0
LINE
  5
16A
100
AcDbEntity
  8
MV
  6
ByLayer
 62
  256
370
   -1
100
AcDbLine
 10
219
 20
66
 11
211.5
 21
66
  0
LINE
  5
16B
100
AcDbEntity
  8
HV
  6
ByLayer
 62
  256
370
   -1
100
AcDbLine
 10
156
 20
111
 11
159
 21
111
  0
LINE
  5
16C
100
AcDbEntity
  8
HV
  6
ByLayer
 62
  256
370
   -1
100
AcDbLine
 10
156
 20
86.93101146221616
 11
156
 21
100.4310114622162
  0
LINE
  5
16D
100
AcDbEntity
  8
HV
  6
ByLayer
 62
  256
370
   -1
100
AcDbLine
 10
156
 20
100.4310114622162
 11
156
 21
100.5
  0
LINE
  5
16E
100
AcDbEntity
  8
HV
  6
ByLayer
 62
  256
370
   -1
100
AcDbLine
 10
129
 20
87
 11
156
 21
86.93101146221616
  0
LINE
  5
16F
100
AcDbEntity
  8
MV
  6
ByLayer
 62
  256
370
   -1
100
AcDbLine
 10
61.5
 20
25.5
 11
108
 21
25.5
  0
LINE
  5
170
100
AcDbEntity
  8
MV
  6
ByLayer
 62
  256
370
   -1
100
AcDbLine
 10
96
 20
37.5
 11
108
 21
37.5
  0
LINE
  5
171
100
AcDbEntity
  8
MV
  6
ByLayer
 62
  256
370
   -1
100
AcDbLine
 10
108
 20
25.43101146221617
 11
108
 21
37.5
  0
LINE
  5
172
100
AcDbEntity
  8
MV
  6
ByLayer
 62
  256
370
   -1
100
AcDbLine
 10
108
 20
37.5
 11
105
 21
34.43101146221617
  0
LINE
  5
173
100
AcDbEntity
  8
MV
  6
ByLayer
 62
  256
370
   -1
100
AcDbLine
 10
108
 20
37.5
 11
129
 21
37.5
  0
LINE
  5
174
100
AcDbEntity
  8
HV
  6
ByLayer
 62
  256
370
   -1
100
AcDbLine
 10
126
 20
109.5
 11
93
 21
109.5
  0
LINE
  5
175
100
AcDbEntity
  8
HV
  6
ByLayer
 62
  256
370
   -1
100
AcDbLine
 10
129
 20
112.5
 11
96
 21
112.5
  0
LINE
  5
176
100
AcDbEntity
  8
MV
  6
ByLayer
 62
  256
370
   -1
100
AcDbLine
 10
90
 20
42
 11
90
 21
37.5
  0
LINE
  5
177
100
AcDbEntity
  8
MV
  6
ByLayer
 62
  256
370
   -1
100
AcDbLine
 10
90
 20
42
 11
90
 21
51
  0
LINE
  5
178
100
AcDbEntity
  8
MV
  6
ByLayer
 62
  256
370
   -1
100
AcDbLine
 10
90
 20
58.5
 11
90
 21
51
  0
MTEXT
  5
179
100
AcDbEntity
  8
MV
  6
ByLayer
 62
  256
370
   -1
100
AcDbMText
 10
90.03034147274357
 20
58.49646844571755
 30
0
 40
1
 41
2.555555555555618
 71
    1
 72
    1
  1
3701
  7
STANDARD
210
0
220
0
230
1
 50
0
 73
    2
 44
1
  0
LINE
  5
17A
100
AcDbEntity
  8
MV
  6
ByLayer
 62
  256
370
   -1
100
AcDbLine
 10
76.5
 20
58.5
 11
90
 21
58.5
  0
MTEXT
  5
17B
100
AcDbEntity
  8
MV
  6
ByLayer
 62
  256
370
   -1
100
AcDbMText
 10
89.98440950947976
 20
37.48584042540102
 30
0
 40
1
 41
2.77777777777784
 71
    1
 72
    1
  1
6700
  7
STANDARD
210
0
220
0
230
1
 50
0
 73
    2
 44
1
  0
LINE
  5
17C
100
AcDbEntity
  8
MV
  6
ByLayer
 62
  256
370
   -1
100
AcDbLine
 10
93
 20
34.5
 11
105
 21
34.5
  0
LINE
  5
17D
100
AcDbEntity
  8
MV
  6
ByLayer
 62
  256
370
   -1
100
AcDbLine
 10
93
 20
34.5
 11
90
 21
37.5
  0
LINE
  5
17E
100
AcDbEntity
  8
HV
  6
ByLayer
 62
  256
370
   -1
100
AcDbLine
 10
78
 20
37.5
 11
90
 21
37.5
  0
LINE
  5
17F
100
AcDbEntity
  8
MV
  6
ByLayer
 62
  256
370
   -1
100
AcDbLine
 10
90
 20
37.5
 11
96
 21
37.5
  0
LINE
  5
180
100
AcDbEntity
  8
HV
  6
ByLayer
 62
  256
370
   -1
100
AcDbLine
 10
78
 20
46.5
 11
78
 21
42
  0
LINE
  5
181
100
AcDbEntity
  8
HV
  6
ByLayer
 62
  256
370
   -1
100
AcDbLine
 10
78
 20
42
 11
78
 21
37.5
  0
MTEXT
  5
182
100
AcDbEntity
  8
HV
  6
ByLayer
 62
  256
370
   -1
100
AcDbMText
 10
78.00304684842891
 20
41.98964851396394
 30
0
 40
1
 41
2.555555555555618
 71
    1
 72
    1
  1
6701
  7
STANDARD
210
0
220
0
230
1
 50
0
 73
    2
 44
1
  0
LINE
  5
183
100
AcDbEntity
  8
HV
  6
ByLayer
 62
  256
370
   -1
100
AcDbLine
 10
22.5
 20
55.5
 11
10.5
 21
55.5
  0
ENDSEC
  0
SECTION
  2
OBJECTS
  0
DICTIONARY
  5
C
330
0
100
AcDbDictionary
281
    1
  3
ACAD_GROUP
350
D
  0
DICTIONARY
  5
D
330
C
100
AcDbDictionary
281
    1
  0
PLOTSETTINGS
  5
184
100
AcDbPlotSettings
  6
1x1
 40
0
 41
0
 42
0
 43
0
  0
ENDSEC
  0
EOF
